<svg width="500" height="500" viewBox="0 0 500 500" fill="none" xmlns="http://www.w3.org/2000/svg">
<path d="M250.001 486.111C380.402 486.111 486.112 380.401 486.112 250C486.112 119.6 380.402 13.8892 250.001 13.8892C119.601 13.8892 13.8901 119.6 13.8901 250C13.8901 380.401 119.601 486.111 250.001 486.111Z" fill="white"/>
<path d="M250 140.625L295.139 218.75L340.278 296.875H250H159.722L204.861 218.75L250 140.625ZM250 52.0837L164.93 199.653L79.8608 347.223H250H420.139L335.069 199.653L250 52.0837Z" fill="#4A72B2"/>
<path d="M250 500C182.292 500 119.792 473.958 72.9167 427.083C26.0417 380.208 0 317.708 0 250C0 182.292 26.0417 119.792 72.9167 72.9167C119.792 26.0417 184.028 0 250 0C315.972 0 380.208 26.0417 427.083 72.9167C473.958 119.792 500 182.292 500 250C500 317.708 473.958 380.208 427.083 427.083C380.208 473.958 317.708 500 250 500ZM250 52.0833C140.625 52.0833 52.0833 140.625 52.0833 250C52.0833 359.375 140.625 447.917 250 447.917C359.375 447.917 447.917 359.375 447.917 250C447.917 140.625 359.375 52.0833 250 52.0833Z" fill="#212121"/>
</svg>
